<?xml version="1.0" encoding="UTF-8" standalone="no"?>
<svg id="logo-ori" viewBox="0 0 523.83 299.73" xmlns="http://www.w3.org/2000/svg">
  <defs>
    <filter x="-50%" y="-50%" width="200%" height="200%" filterUnits="objectBoundingBox" id="sombra-letras-view">
        <feOffset dx="0" dy="0" in="SourceAlpha" result="shadowOffsetOuter1"></feOffset>
        <feGaussianBlur stdDeviation="10" in="shadowOffsetOuter1" result="shadowBlurOuter1"></feGaussianBlur>
        <feColorMatrix values="0 0 0 0 0   0 0 0 0 0   0 0 0 0 0  0 0 0 1 0" type="matrix" in="shadowBlurOuter1" result="shadowMatrixOuter1"></feColorMatrix>
        <feMerge>
            <feMergeNode in="shadowMatrixOuter1"></feMergeNode>
            <feMergeNode in="SourceGraphic"></feMergeNode>
        </feMerge>
    </filter>
  </defs>

  <path filter="url(#sombra-letras-view)" fill="#000f33" opacity="0.8" d="M166.91,146.48q0-15.42-8.21-24.49t-22.32-9.08a33.35,33.35,0,0,0-17.5,4.62,31.19,31.19,0,0,0-12,13,41.69,41.69,0,0,0-4.25,19.15q0,16.86,9.65,26.58t26.36,9.72a44.9,44.9,0,0,0,11.45-1.58,45.78,45.78,0,0,0,11-4.47q5.19-2.88,5.19-7a6.2,6.2,0,0,0-1.3-4,4.11,4.11,0,0,0-3.31-1.59,7.89,7.89,0,0,0-3.24.94,26.55,26.55,0,0,0-2.38,1.23,68,68,0,0,1-8.21,3.74,26.57,26.57,0,0,1-9.22,1.44q-20,0-21.46-22.33h44.51C165.18,152.23,166.91,150.32,166.91,146.48Zm-49.69-3.59a24.66,24.66,0,0,1,6-14q5-5.33,13.39-5.33t12.75,5.26c3,3.51,4.68,8.52,5,14.06Zm385.52-23.2a6.69,6.69,0,0,1-.58,2.73L459.44,213.1a6.76,6.76,0,0,1-2.52,3.09,6.28,6.28,0,0,1-3.53,1.08,7.15,7.15,0,0,1-4.68-1.72,5.4,5.4,0,0,1-2.09-4.32,7.82,7.82,0,0,1,.72-2.88L460,181.48l-27.8-59.06a5.85,5.85,0,0,1,1.73-7.2,8,8,0,0,1,5.18-1.87,6.39,6.39,0,0,1,6.2,4l22.32,49.55,22.19-49.4a6.18,6.18,0,0,1,2.52-3.17,6.59,6.59,0,0,1,3.52-1,7,7,0,0,1,4.83,1.87A5.82,5.82,0,0,1,502.74,119.69Zm-83.51-26v89.91a2.1,2.1,0,0,1-2.1,2.1H406.78a2.1,2.1,0,0,1-2.1-2.1V93.64a6.42,6.42,0,0,1,2-5.18,7.63,7.63,0,0,1,5.18-1.73,7.92,7.92,0,0,1,5.26,1.73A6.33,6.33,0,0,1,419.23,93.64Zm-31.39,0v89.91a2.09,2.09,0,0,1-2.09,2.1H375.39a2.1,2.1,0,0,1-2.09-2.1V93.64a6.44,6.44,0,0,1,2-5.18,7.68,7.68,0,0,1,5.19-1.73,7.89,7.89,0,0,1,5.25,1.73A6.3,6.3,0,0,1,387.84,93.64Zm-202.76,92a1.87,1.87,0,0,1-1.87-1.87V120.12a6.48,6.48,0,0,1,2.08-5,7.43,7.43,0,0,1,5.26-2,6.85,6.85,0,0,1,5,1.87,6.66,6.66,0,0,1,1.88,4.9v3.13a.78.78,0,0,0,1.43.44,23.12,23.12,0,0,1,8.22-7.31,29.09,29.09,0,0,1,14-3.32q25.2,0,25.2,28.38v42.49a1.87,1.87,0,0,1-1.87,1.87h-10.8a1.87,1.87,0,0,1-1.87-1.87V142q0-8.92-3.53-13.11t-11-4.17q-8.79,0-14.12,5.47t-5.33,14.69v38.89a1.87,1.87,0,0,1-1.87,1.87Zm81.83,0a1.6,1.6,0,0,1-1.6-1.6V120.26A6.6,6.6,0,0,1,267.4,115a7.76,7.76,0,0,1,5.26-1.8,7.48,7.48,0,0,1,5.18,1.8,6.69,6.69,0,0,1,2,5.26v63.79a1.6,1.6,0,0,1-1.6,1.6ZM281,90.89a8.43,8.43,0,1,1-8.43-8.43A8.43,8.43,0,0,1,281,90.89Zm61.41,82.52v10.08a2.17,2.17,0,0,0,2.17,2.16h9.64a2.16,2.16,0,0,0,2.16-2.16V141.43q0-14.4-6.84-21.46t-20.81-7.06a55.28,55.28,0,0,0-13.11,1.66A49.71,49.71,0,0,0,303.82,119a12.86,12.86,0,0,0-4,3.24,6.25,6.25,0,0,0-1.23,3.82,6,6,0,0,0,1.37,4,4.43,4.43,0,0,0,3.53,1.58q1.59,0,5.47-2.16a71.55,71.55,0,0,1,9.8-3.75,34,34,0,0,1,9.51-1.29q7.33,0,10.65,3.6t3.32,11.67v4.17H339q-16,0-25.13,1.87T300.72,152q-4,4.39-4,12A20.32,20.32,0,0,0,300,175.28a21.76,21.76,0,0,0,9,7.85,28.58,28.58,0,0,0,12.68,2.81,24,24,0,0,0,12.6-3.24A20.26,20.26,0,0,0,342.42,173.41Zm-18.15,1.73a13.61,13.61,0,0,1-9.36-3.31,10.84,10.84,0,0,1-3.75-8.5,8.84,8.84,0,0,1,2.6-6.85q2.6-2.37,8.64-3.38a112.36,112.36,0,0,1,17.28-1h2.6v3.75q0,8.49-5,13.9A17,17,0,0,1,324.27,175.14Zm-235.7-60a7.1,7.1,0,0,0-5.26-2,7.26,7.26,0,0,0-5.25,1.87,6.69,6.69,0,0,0-2,5.05v6a22.61,22.61,0,0,0-9.29-9.8,28.3,28.3,0,0,0-14.19-3.46,30.5,30.5,0,0,0-16.34,4.4,30.17,30.17,0,0,0-11.17,12.31,39.76,39.76,0,0,0-4,18.29,40.4,40.4,0,0,0,4,18.3,29.06,29.06,0,0,0,11.16,12.24,31.31,31.31,0,0,0,16.42,4.32A28.53,28.53,0,0,0,67,179.24a22.08,22.08,0,0,0,9.22-9.86v11.09q0,20-19.88,20a36.66,36.66,0,0,1-10.66-1.37,72.76,72.76,0,0,1-9.65-3.82l-.11-.06a2.61,2.61,0,0,0-3.6,1.27l-2.71,6.13A2.61,2.61,0,0,0,30.72,206h0q10.36,5.91,25.93,5.91,16.69,0,25.28-8.21t8.57-24.34V120.26A6.89,6.89,0,0,0,88.57,115.15Zm-17.79,49.9q-5.32,6.19-14.69,6.2t-14.84-6.2q-5.47-6.18-5.47-17.14t5.4-17.14q5.4-6.18,14.91-6.19t14.76,6.27c3.51,4.17,5.26,9.87,5.26,17.06S74.33,160.93,70.78,165.05Z"/>

  <path fill="#ffffff" d="M166.91,146.48q0-15.42-8.21-24.49t-22.32-9.08a33.35,33.35,0,0,0-17.5,4.62,31.19,31.19,0,0,0-12,13,41.69,41.69,0,0,0-4.25,19.15q0,16.86,9.65,26.58t26.36,9.72a44.9,44.9,0,0,0,11.45-1.58,45.78,45.78,0,0,0,11-4.47q5.19-2.88,5.19-7a6.2,6.2,0,0,0-1.3-4,4.11,4.11,0,0,0-3.31-1.59,7.89,7.89,0,0,0-3.24.94,26.55,26.55,0,0,0-2.38,1.23,68,68,0,0,1-8.21,3.74,26.57,26.57,0,0,1-9.22,1.44q-20,0-21.46-22.33h44.51C165.18,152.23,166.91,150.32,166.91,146.48Zm-49.69-3.59a24.66,24.66,0,0,1,6-14q5-5.33,13.39-5.33t12.75,5.26c3,3.51,4.68,8.52,5,14.06Zm385.52-23.2a6.69,6.69,0,0,1-.58,2.73L459.44,213.1a6.76,6.76,0,0,1-2.52,3.09,6.28,6.28,0,0,1-3.53,1.08,7.15,7.15,0,0,1-4.68-1.72,5.4,5.4,0,0,1-2.09-4.32,7.82,7.82,0,0,1,.72-2.88L460,181.48l-27.8-59.06a5.85,5.85,0,0,1,1.73-7.2,8,8,0,0,1,5.18-1.87,6.39,6.39,0,0,1,6.2,4l22.32,49.55,22.19-49.4a6.18,6.18,0,0,1,2.52-3.17,6.59,6.59,0,0,1,3.52-1,7,7,0,0,1,4.83,1.87A5.82,5.82,0,0,1,502.74,119.69Zm-83.51-26v89.91a2.1,2.1,0,0,1-2.1,2.1H406.78a2.1,2.1,0,0,1-2.1-2.1V93.64a6.42,6.42,0,0,1,2-5.18,7.63,7.63,0,0,1,5.18-1.73,7.92,7.92,0,0,1,5.26,1.73A6.33,6.33,0,0,1,419.23,93.64Zm-31.39,0v89.91a2.09,2.09,0,0,1-2.09,2.1H375.39a2.1,2.1,0,0,1-2.09-2.1V93.64a6.44,6.44,0,0,1,2-5.18,7.68,7.68,0,0,1,5.19-1.73,7.89,7.89,0,0,1,5.25,1.73A6.3,6.3,0,0,1,387.84,93.64Zm-202.76,92a1.87,1.87,0,0,1-1.87-1.87V120.12a6.48,6.48,0,0,1,2.08-5,7.43,7.43,0,0,1,5.26-2,6.85,6.85,0,0,1,5,1.87,6.66,6.66,0,0,1,1.88,4.9v3.13a.78.78,0,0,0,1.43.44,23.12,23.12,0,0,1,8.22-7.31,29.09,29.09,0,0,1,14-3.32q25.2,0,25.2,28.38v42.49a1.87,1.87,0,0,1-1.87,1.87h-10.8a1.87,1.87,0,0,1-1.87-1.87V142q0-8.92-3.53-13.11t-11-4.17q-8.79,0-14.12,5.47t-5.33,14.69v38.89a1.87,1.87,0,0,1-1.87,1.87Zm81.83,0a1.6,1.6,0,0,1-1.6-1.6V120.26A6.6,6.6,0,0,1,267.4,115a7.76,7.76,0,0,1,5.26-1.8,7.48,7.48,0,0,1,5.18,1.8,6.69,6.69,0,0,1,2,5.26v63.79a1.6,1.6,0,0,1-1.6,1.6ZM281,90.89a8.43,8.43,0,1,1-8.43-8.43A8.43,8.43,0,0,1,281,90.89Zm61.41,82.52v10.08a2.17,2.17,0,0,0,2.17,2.16h9.64a2.16,2.16,0,0,0,2.16-2.16V141.43q0-14.4-6.84-21.46t-20.81-7.06a55.28,55.28,0,0,0-13.11,1.66A49.71,49.71,0,0,0,303.82,119a12.86,12.86,0,0,0-4,3.24,6.25,6.25,0,0,0-1.23,3.82,6,6,0,0,0,1.37,4,4.43,4.43,0,0,0,3.53,1.58q1.59,0,5.47-2.16a71.55,71.55,0,0,1,9.8-3.75,34,34,0,0,1,9.51-1.29q7.33,0,10.65,3.6t3.32,11.67v4.17H339q-16,0-25.13,1.87T300.72,152q-4,4.39-4,12A20.32,20.32,0,0,0,300,175.28a21.76,21.76,0,0,0,9,7.85,28.58,28.58,0,0,0,12.68,2.81,24,24,0,0,0,12.6-3.24A20.26,20.26,0,0,0,342.42,173.41Zm-18.15,1.73a13.61,13.61,0,0,1-9.36-3.31,10.84,10.84,0,0,1-3.75-8.5,8.84,8.84,0,0,1,2.6-6.85q2.6-2.37,8.64-3.38a112.36,112.36,0,0,1,17.28-1h2.6v3.75q0,8.49-5,13.9A17,17,0,0,1,324.27,175.14Zm-235.7-60a7.1,7.1,0,0,0-5.26-2,7.26,7.26,0,0,0-5.25,1.87,6.69,6.69,0,0,0-2,5.05v6a22.61,22.61,0,0,0-9.29-9.8,28.3,28.3,0,0,0-14.19-3.46,30.5,30.5,0,0,0-16.34,4.4,30.17,30.17,0,0,0-11.17,12.31,39.76,39.76,0,0,0-4,18.29,40.4,40.4,0,0,0,4,18.3,29.06,29.06,0,0,0,11.16,12.24,31.31,31.31,0,0,0,16.42,4.32A28.53,28.53,0,0,0,67,179.24a22.08,22.08,0,0,0,9.22-9.86v11.09q0,20-19.88,20a36.66,36.66,0,0,1-10.66-1.37,72.76,72.76,0,0,1-9.65-3.82l-.11-.06a2.61,2.61,0,0,0-3.6,1.27l-2.71,6.13A2.61,2.61,0,0,0,30.72,206h0q10.36,5.91,25.93,5.91,16.69,0,25.28-8.21t8.57-24.34V120.26A6.89,6.89,0,0,0,88.57,115.15Zm-17.79,49.9q-5.32,6.19-14.69,6.2t-14.84-6.2q-5.47-6.18-5.47-17.14t5.4-17.14q5.4-6.18,14.91-6.19t14.76,6.27c3.51,4.17,5.26,9.87,5.26,17.06S74.33,160.93,70.78,165.05Z"/>
</svg>
